<?xml version="1.0" standalone="no"?>
<!DOCTYPE svg PUBLIC "-//W3C//DTD SVG 20010904//EN"
 "http://www.w3.org/TR/2001/REC-SVG-20010904/DTD/svg10.dtd">
<svg version="1.0" xmlns="http://www.w3.org/2000/svg"
 width="840.000000pt" height="240.000000pt" viewBox="0 0 840.000000 240.000000"
 preserveAspectRatio="xMidYMid meet">

<g transform="translate(0.000000,240.000000) scale(0.100000,-0.100000)"
fill="#000000" stroke="none">
<path d="M1028 1977 c-87 -51 -158 -95 -158 -98 0 -3 136 -84 302 -180 166
-96 307 -178 315 -182 11 -7 13 27 13 187 l0 194 -140 82 c-77 45 -148 83
-158 85 -9 2 -88 -38 -174 -88z"/>
<path d="M1610 1464 c0 -297 2 -365 13 -362 7 2 84 44 170 93 l157 90 -2 179
-3 179 -163 93 c-90 52 -165 94 -168 94 -2 0 -4 -165 -4 -366z"/>
<path d="M595 1726 l-140 -82 -3 -196 -2 -197 315 182 c173 100 315 185 315
189 0 10 -315 188 -331 187 -8 0 -77 -38 -154 -83z"/>
<path d="M7805 1756 c-48 -21 -70 -53 -70 -101 0 -106 142 -150 195 -62 57 93
-29 205 -125 163z m70 -20 c106 -45 50 -194 -62 -164 -32 8 -63 49 -63 82 0
31 26 69 55 82 37 16 30 16 70 0z"/>
<path d="M7794 1706 c-9 -25 1 -109 14 -114 7 -2 12 6 12 23 0 22 4 26 23 23
14 -2 23 -11 25 -25 2 -13 7 -23 12 -23 16 0 21 20 10 41 -9 15 -9 24 -1 32
15 15 14 23 -5 41 -19 20 -83 21 -90 2z m74 -28 c-7 -20 -48 -23 -48 -4 0 11
9 16 26 16 16 0 24 -5 22 -12z"/>
<path d="M5230 1573 l0 -187 -37 36 c-115 112 -332 98 -443 -29 -18 -20 -45
-62 -59 -93 -22 -48 -26 -68 -26 -155 0 -90 3 -106 28 -158 37 -74 69 -111
122 -143 61 -35 99 -45 182 -45 84 0 149 24 201 73 l32 32 0 -47 0 -47 55 0
55 0 -2 473 -3 472 -52 3 -53 3 0 -188z m-97 -209 c27 -19 52 -50 70 -86 25
-47 29 -67 29 -131 -1 -93 -22 -147 -80 -199 -120 -108 -325 -52 -371 101 -17
60 -14 163 8 213 41 95 119 140 229 135 61 -3 80 -9 115 -33z"/>
<path d="M6227 1753 c-4 -3 -7 -217 -7 -475 l0 -468 55 0 55 0 0 215 c0 172 3
223 15 253 61 143 259 167 342 40 l28 -41 3 -234 3 -234 52 3 52 3 0 225 c-1
163 -4 236 -14 265 -48 140 -189 219 -331 185 -35 -8 -65 -25 -100 -57 l-50
-45 0 186 0 186 -48 0 c-27 0 -52 -3 -55 -7z"/>
<path d="M7240 1285 l0 -476 53 3 52 3 0 470 0 470 -52 3 -53 3 0 -476z"/>
<path d="M7505 1748 c-3 -7 -4 -220 -3 -473 l3 -460 53 -3 52 -3 0 475 0 476
-50 0 c-31 0 -52 -5 -55 -12z"/>
<path d="M3687 1712 c-22 -25 -21 -75 1 -95 10 -10 32 -17 49 -17 55 0 81 59
47 108 -19 28 -74 30 -97 4z"/>
<path d="M6976 1708 c-53 -76 52 -151 107 -77 33 45 1 99 -58 99 -24 0 -39 -7
-49 -22z"/>
<path d="M4199 1491 c-44 -14 -73 -32 -111 -69 l-38 -36 0 52 0 52 -50 0 -50
0 0 -340 0 -340 49 0 50 0 3 229 3 229 30 44 c43 62 103 90 181 86 49 -3 69
-10 99 -32 68 -52 75 -81 75 -334 l0 -223 53 3 52 3 0 235 c0 217 -2 238 -21
281 -29 62 -76 114 -128 139 -48 23 -156 34 -197 21z"/>
<path d="M5700 1486 c-90 -24 -173 -96 -213 -185 -29 -65 -35 -195 -12 -270
32 -106 120 -195 218 -222 44 -12 150 -14 193 -3 86 21 179 96 210 170 8 18
14 36 14 39 0 3 -24 5 -54 5 -51 0 -54 -2 -79 -39 -41 -62 -89 -86 -172 -85
-51 0 -81 6 -111 22 -152 79 -177 306 -47 423 52 47 100 62 178 57 71 -4 122
-35 157 -94 19 -32 23 -34 74 -34 31 0 54 4 54 10 0 26 -42 89 -88 132 -81 76
-209 105 -322 74z"/>
<path d="M2600 1479 c0 -7 45 -155 100 -329 55 -174 100 -322 100 -329 0 -7
22 -11 64 -11 l64 0 37 118 c101 323 126 402 130 402 4 0 29 -79 130 -403 l37
-118 61 3 61 3 103 325 c57 179 103 331 103 338 0 8 -17 12 -53 12 l-53 0 -79
-270 c-43 -148 -81 -267 -84 -265 -2 3 -41 123 -87 267 l-82 263 -57 0 -57 0
-82 -262 c-45 -145 -84 -265 -87 -267 -3 -3 -40 116 -84 264 l-79 270 -53 0
c-33 0 -53 -4 -53 -11z"/>
<path d="M3680 1150 l0 -341 53 3 52 3 0 335 0 335 -52 3 -53 3 0 -341z"/>
<path d="M6980 1150 l0 -340 50 0 50 0 0 340 0 340 -50 0 -50 0 0 -340z"/>
<path d="M607 1217 l-157 -92 2 -179 3 -178 130 -75 c72 -41 145 -84 163 -95
l32 -20 0 366 c0 201 -3 366 -7 366 -5 -1 -79 -42 -166 -93z"/>
<path d="M1670 999 c-140 -82 -279 -163 -309 -180 l-53 -30 103 -60 c57 -33
133 -76 169 -96 l65 -36 153 87 152 88 0 189 c0 145 -3 189 -12 188 -7 -1
-128 -68 -268 -150z"/>
<path d="M890 706 l-1 -184 28 -19 c15 -11 85 -52 155 -92 l126 -72 158 91
c87 49 161 93 165 98 8 7 -599 362 -619 362 -7 0 -11 -62 -12 -184z"/>
</g>
</svg>
